<svg width="153" height="32" viewBox="0 0 153 32" fill="none" xmlns="http://www.w3.org/2000/svg">
<g clip-path="url(#clip0_7_135)">
<path d="M20.3362 31.5013V27.2692H-6.10352e-05V31.5013H20.3362ZM57.0137 6.04537C54.1096 6.44037 52.1262 7.61829 51.0637 9.57916C49.7462 11.8786 49.4346 14.1286 50.1287 16.3293C51.3329 19.8702 53.6279 21.697 57.0137 21.8099V27.2904H60.775V21.8099C64.1467 21.6829 66.4346 19.8561 67.6387 16.3293C68.3329 14.1286 68.0212 11.8786 66.7037 9.57916C65.6412 7.61829 63.665 6.44037 60.775 6.04537V0.60715H57.0137V6.04537ZM57.0137 9.72728V18.2126C55.5971 17.9022 54.6054 16.9218 54.0387 15.2713C53.6562 14.044 53.8333 12.7955 54.57 11.5259C55.0375 10.6372 55.8521 10.0376 57.0137 9.72728ZM60.775 9.72728C61.9366 10.0376 62.7583 10.6372 63.24 11.5259C63.9767 12.7955 64.1537 14.044 63.7712 15.2713C63.1904 16.9218 62.1917 17.9022 60.775 18.2126V9.72728ZM40.12 6.6167H36.295V21.3867H44.3487C46.3746 21.1186 47.6496 20.1029 48.1737 18.3396L48.2162 14.446C47.8054 12.3441 46.495 11.1803 44.285 10.9546H40.12V6.6167ZM40.0775 14.3191H43.3075C44.8941 15.4335 44.8941 16.5974 43.3075 17.8106H40.0775V14.3191ZM26.0525 9.93888H29.58V21.4078H33.5962V6.38394H22.3975V16.6044C22.0433 17.5073 21.3633 17.8388 20.3575 17.5989V21.3655L22.78 21.0904C24.225 20.7377 25.1175 19.9478 25.4575 18.7204C25.7833 17.4931 25.8966 16.7666 25.7975 16.5409L26.0525 9.93888ZM12.0912 0.988037C10.9295 0.381439 9.7112 0.346171 8.4362 0.882235C7.06203 2.70203 4.38452 9.4522 0.403688 21.1327H4.48369L6.05619 17.2815H13.8974L15.2999 21.3867H19.55C17.6941 14.5166 15.2079 7.71704 12.0912 0.988037ZM9.9662 5.34708L12.58 13.2822H7.22494L9.9662 5.34708ZM142.545 6.65902H138.763V21.2385H142.46V15.3348L147.964 21.1327H153L146.179 13.4092L152.32 6.68018H147.518L142.545 12.1607V6.65902ZM126.863 6.65902H123.08V21.2385H126.778V15.5464H132.26V21.2385H135.958V6.65902H132.175V11.9491H132.111H126.926L126.863 6.65902ZM109.82 12.0972C108.148 12.7321 107.277 13.8112 107.206 15.3348C106.795 18.523 107.844 20.4415 110.351 21.0904C112.59 22.0074 114.615 21.5771 116.429 19.7996C117.562 21.2809 119.092 21.7534 121.019 21.2174V18.0222L119.808 17.1334V10.0658C119.482 8.24605 118.193 6.98348 115.94 6.27814C114.339 5.78439 112.816 5.78439 111.371 6.27814C109.034 7.2233 107.745 8.69042 107.504 10.6795H111.414C111.527 10.0588 111.867 9.72728 112.434 9.68496H114.878C115.628 10.08 115.933 10.7218 115.791 11.6106C113.454 11.399 111.463 11.5612 109.82 12.0972ZM111.903 15.0597H116.004V16.6679C115.635 17.3168 115.218 17.7471 114.75 17.9587C113.716 18.5371 112.767 18.5371 111.903 17.9587C110.755 16.8865 110.755 15.9202 111.903 15.0597ZM94.4563 4.60646H104.316V0.60715H90.0575V21.2174H100.576C103.24 20.7095 104.805 19.3412 105.273 17.1123L105.23 12.5416C104.918 10.6795 103.438 9.47336 100.789 8.92318C98.8196 8.65515 96.7088 8.52819 94.4563 8.5423V4.60646ZM94.265 12.3088L99.2375 12.2877C102.198 14.0652 102.198 15.7862 99.2375 17.4508H94.265V12.3088ZM82.0675 10.0658C81.7417 8.24605 80.4525 6.98348 78.2 6.27814C76.5992 5.78439 75.0762 5.78439 73.6312 6.27814C71.2937 7.2233 70.0046 8.69042 69.7637 10.6795H73.6737C73.7871 10.0588 74.1271 9.72728 74.6937 9.68496H77.1375C77.8883 10.08 78.1929 10.7218 78.0512 11.6106C75.7137 11.399 73.7233 11.5612 72.08 12.0972C70.4083 12.7321 69.5371 13.8112 69.4662 15.3348C69.0554 18.523 70.1037 20.4415 72.6112 21.0904C74.8496 22.0074 76.8754 21.5771 78.6887 19.7996C79.8221 21.2809 81.3521 21.7534 83.2787 21.2174V18.0222L82.0675 17.1334V10.0658ZM78.2637 16.6679C77.8954 17.3168 77.4775 17.7471 77.01 17.9587C75.9758 18.5371 75.0267 18.5371 74.1625 17.9587C73.015 16.8865 73.015 15.9202 74.1625 15.0597H78.2637V16.6679Z" fill="#F03024"/>
</g>
<defs>
<clipPath id="clip0_7_135">
<rect width="153" height="31" fill="white" transform="translate(0 0.5)"/>
</clipPath>
</defs>
</svg>
