<svg width="201" height="169" viewBox="0 0 201 169" fill="none" xmlns="http://www.w3.org/2000/svg">
  <path d="M22.8241 1.8245C27.1855 3.32222 34.3597 8.11142 45.7598 17.0889C46.8903 17.9933 47.9134 18.7558 47.9983 18.8069C48.1128 18.8604 49.2356 17.5826 50.7934 15.6708C52.4182 13.6603 53.5228 12.4256 53.7179 12.3963C54.0025 12.3591 57.9488 11.9545 83.4182 9.36948L90.4662 8.65565C92.0496 8.49529 93.6319 8.97058 94.8648 9.97695L142.333 48.7219C179.492 79.0592 191.537 88.874 193.941 90.8228C194.264 91.0843 194.292 91.3717 194.031 91.6953C192.215 93.952 184.235 103.767 174.721 115.436C163.881 128.749 150.584 145.047 145.19 151.661C139.794 158.29 135.324 163.7 135.25 163.694C135.118 163.684 34.2892 81.4662 33.9336 81.0823C33.8384 80.971 32.9058 72.3942 31.764 61.1743L30.0221 43.9305C29.8622 42.3475 30.3375 40.7658 31.3437 39.5332L34.1005 36.156C36.4792 33.2249 38.4481 30.796 38.4674 30.7381C38.4867 30.6803 37.7256 29.9828 36.7638 29.1954C31.4158 24.7564 26.9906 20.4635 23.1201 15.9023C17.8909 9.75091 15.8059 5.49212 16.922 3.16003C17.8483 1.16933 19.7037 0.764904 22.8241 1.8245ZM18.9126 3.49337C18.4473 3.94684 18.427 4.77636 18.8689 6.14652C20.3196 10.7417 29.2613 20.8187 38.1825 27.9258L39.2427 28.7801C39.5355 29.016 39.9642 28.9698 40.2 28.6767C40.4146 28.3967 42.0223 26.4146 43.7595 24.2942L44.2958 23.638C45.7302 21.8831 45.4463 19.2928 43.6658 17.8903C36.1084 11.9284 31.4599 8.59767 27.2504 6.10259C22.6148 3.3665 19.9081 2.51727 18.9126 3.49337ZM54.5582 29.5738C54.2247 29.6665 54.2484 29.7426 55.6404 33.1904C56.4228 35.1362 57.186 37.14 57.3532 37.6576L57.4888 38.0881C57.5821 38.3842 57.448 38.7043 57.1716 38.8456C56.2458 39.3077 55.5722 39.3887 54.0905 39.1841C52.4319 38.9657 51.0015 38.4832 48.8314 37.4086C47.9611 36.9697 47.1882 36.6126 47.1292 36.608C46.9229 36.5919 46.778 39.4005 46.9549 40.3641C47.5452 43.8236 50.0955 46.6791 53.4982 47.731C55.7005 48.3925 58.3767 48.1115 60.5108 46.9867C62.5053 45.9401 64.3378 43.7381 65.0262 41.5656C65.3812 40.4356 65.5027 38.308 65.2976 37.1343C64.6935 33.8518 62.0652 30.8567 58.9232 29.8845C57.9541 29.5715 55.1956 29.386 54.5582 29.5738ZM51.5375 30.6591C50.437 31.2708 48.9648 32.655 48.289 33.7154C48.0016 34.1679 47.7619 34.5796 47.7584 34.6238C47.7492 34.7419 50.0882 35.9335 51.4822 36.5023C52.4875 36.922 53.0542 37.0701 53.9533 37.1402C54.5871 37.1896 55.12 37.2015 55.1223 37.172C55.1246 37.1425 54.5446 35.6428 53.8243 33.8502C53.1052 32.0429 52.5298 30.4842 52.5367 30.3957C52.5586 30.1154 52.4678 30.138 51.5375 30.6591Z" fill="#F1F33F" />
  <path d="M17.8241 1.8245C22.1855 3.32222 29.3597 8.11144 40.7598 17.0889C41.8903 17.9933 42.9134 18.7558 42.9983 18.8069C43.1128 18.8604 44.2356 17.5826 45.7934 15.6708C47.4182 13.6603 48.5228 12.4256 48.7179 12.3963C49.0025 12.3591 52.9488 11.9545 78.4182 9.36948L85.4662 8.65565C87.0496 8.49528 88.6319 8.97058 89.8648 9.97693L137.333 48.7219C174.492 79.0593 186.537 88.874 188.941 90.8228C189.264 91.0843 189.292 91.3717 189.031 91.6953C187.215 93.952 179.235 103.767 169.721 115.436C158.881 128.749 145.584 145.047 140.19 151.661C134.794 158.29 130.324 163.7 130.25 163.694C130.118 163.684 29.2891 81.4662 28.9336 81.0823C28.8384 80.971 27.9058 72.3942 26.764 61.1743L25.0221 43.9305C24.8622 42.3475 25.3375 40.7658 26.3437 39.5332L29.1005 36.156C31.4792 33.2249 33.4481 30.796 33.4674 30.7381C33.4867 30.6803 32.7256 29.9828 31.7638 29.1954C26.4158 24.7564 21.9906 20.4635 18.1201 15.9023C12.8908 9.75091 10.8059 5.49212 11.922 3.16003C12.8483 1.16933 14.7037 0.764904 17.8241 1.8245ZM13.9126 3.49337C13.4473 3.94684 13.427 4.77636 13.8689 6.14652C15.3196 10.7417 24.2613 20.8187 33.1825 27.9258L34.2427 28.7801C34.5355 29.016 34.9642 28.9698 35.2 28.6767C35.4146 28.3967 37.0223 26.4146 38.7595 24.2942L39.2958 23.638C40.7302 21.8831 40.4463 19.2928 38.6658 17.8903C31.1084 11.9284 26.4599 8.59767 22.2504 6.10259C17.6148 3.3665 14.9081 2.51727 13.9126 3.49337ZM49.5582 29.5738C49.2247 29.6665 49.2484 29.7426 50.6404 33.1904C51.4228 35.1362 52.1859 37.14 52.3532 37.6576L52.4888 38.0881C52.5821 38.3842 52.448 38.7043 52.1716 38.8456C51.2458 39.3077 50.5722 39.3887 49.0905 39.1841C47.4319 38.9658 46.0015 38.4832 43.8314 37.4086C42.961 36.9697 42.1882 36.6126 42.1292 36.608C41.9229 36.5919 41.778 39.4005 41.9549 40.3641C42.5452 43.8237 45.0955 46.6791 48.4982 47.731C50.7005 48.3925 53.3767 48.1115 55.5108 46.9867C57.5053 45.9401 59.3378 43.7381 60.0262 41.5656C60.3812 40.4356 60.5027 38.3079 60.2976 37.1343C59.6935 33.8518 57.0652 30.8567 53.9232 29.8845C52.9541 29.5715 50.1956 29.386 49.5582 29.5738ZM46.5375 30.6591C45.437 31.2708 43.9648 32.655 43.289 33.7154C43.0016 34.1679 42.7619 34.5796 42.7584 34.6238C42.7492 34.7419 45.0882 35.9335 46.4822 36.5023C47.4875 36.922 48.0542 37.0701 48.9533 37.1402C49.5871 37.1896 50.12 37.2015 50.1223 37.172C50.1246 37.1425 49.5446 35.6428 48.8243 33.8502C48.1052 32.0429 47.5298 30.4842 47.5367 30.3957C47.5586 30.1154 47.4678 30.138 46.5375 30.6591Z" fill="#6747E5" />
</svg>