<svg width="120" height="120" viewBox="0 0 120 120" fill="none" xmlns="http://www.w3.org/2000/svg">
<path d="M83.751 17.8V10C83.751 7.95 82.051 6.25 80.001 6.25C77.951 6.25 76.251 7.95 76.251 10V17.5H43.7511V10C43.7511 7.95 42.0511 6.25 40.0011 6.25C37.9511 6.25 36.2511 7.95 36.2511 10V17.8C22.7511 19.05 16.2011 27.1 15.2011 39.05C15.1011 40.5 16.3011 41.7 17.7011 41.7H102.301C103.751 41.7 104.951 40.45 104.801 39.05C103.801 27.1 97.251 19.05 83.751 17.8Z" fill="white"/>
<path d="M100 49.1992H20C17.25 49.1992 15 51.449 15 54.199V84.999C15 99.999 22.5 109.999 40 109.999H80C97.5 109.999 105 99.999 105 84.999V54.199C105 51.449 102.75 49.1992 100 49.1992ZM46.05 91.049C45.8 91.249 45.55 91.499 45.3 91.649C45 91.849 44.7 91.999 44.4 92.099C44.1 92.249 43.8 92.349 43.5 92.399C43.15 92.449 42.85 92.499 42.5 92.499C41.85 92.499 41.2 92.349 40.6 92.099C39.95 91.849 39.45 91.499 38.95 91.049C38.05 90.099 37.5 88.799 37.5 87.499C37.5 86.199 38.05 84.899 38.95 83.949C39.45 83.499 39.95 83.149 40.6 82.899C41.5 82.499 42.5 82.399 43.5 82.599C43.8 82.649 44.1 82.749 44.4 82.899C44.7 82.999 45 83.149 45.3 83.349C45.55 83.549 45.8 83.749 46.05 83.949C46.95 84.899 47.5 86.199 47.5 87.499C47.5 88.799 46.95 90.099 46.05 91.049ZM46.05 73.549C45.1 74.449 43.8 74.999 42.5 74.999C41.2 74.999 39.9 74.449 38.95 73.549C38.05 72.599 37.5 71.299 37.5 69.999C37.5 68.699 38.05 67.399 38.95 66.449C40.35 65.049 42.55 64.599 44.4 65.399C45.05 65.649 45.6 65.999 46.05 66.449C46.95 67.399 47.5 68.699 47.5 69.999C47.5 71.299 46.95 72.599 46.05 73.549ZM63.55 91.049C62.6 91.949 61.3 92.499 60 92.499C58.7 92.499 57.4 91.949 56.45 91.049C55.55 90.099 55 88.799 55 87.499C55 86.199 55.55 84.899 56.45 83.949C58.3 82.099 61.7 82.099 63.55 83.949C64.45 84.899 65 86.199 65 87.499C65 88.799 64.45 90.099 63.55 91.049ZM63.55 73.549C63.3 73.749 63.05 73.949 62.8 74.149C62.5 74.349 62.2 74.499 61.9 74.599C61.6 74.749 61.3 74.849 61 74.899C60.65 74.949 60.35 74.999 60 74.999C58.7 74.999 57.4 74.449 56.45 73.549C55.55 72.599 55 71.299 55 69.999C55 68.699 55.55 67.399 56.45 66.449C56.9 65.999 57.45 65.649 58.1 65.399C59.95 64.599 62.15 65.049 63.55 66.449C64.45 67.399 65 68.699 65 69.999C65 71.299 64.45 72.599 63.55 73.549ZM81.05 91.049C80.1 91.949 78.8 92.499 77.5 92.499C76.2 92.499 74.9 91.949 73.95 91.049C73.05 90.099 72.5 88.799 72.5 87.499C72.5 86.199 73.05 84.899 73.95 83.949C75.8 82.099 79.2 82.099 81.05 83.949C81.95 84.899 82.5 86.199 82.5 87.499C82.5 88.799 81.95 90.099 81.05 91.049ZM81.05 73.549C80.8 73.749 80.55 73.949 80.3 74.149C80 74.349 79.7 74.499 79.4 74.599C79.1 74.749 78.8 74.849 78.5 74.899C78.15 74.949 77.8 74.999 77.5 74.999C76.2 74.999 74.9 74.449 73.95 73.549C73.05 72.599 72.5 71.299 72.5 69.999C72.5 68.699 73.05 67.399 73.95 66.449C74.45 65.999 74.95 65.649 75.6 65.399C76.5 64.999 77.5 64.899 78.5 65.099C78.8 65.149 79.1 65.249 79.4 65.399C79.7 65.499 80 65.649 80.3 65.849C80.55 66.049 80.8 66.249 81.05 66.449C81.95 67.399 82.5 68.699 82.5 69.999C82.5 71.299 81.95 72.599 81.05 73.549Z" fill="white"/>
</svg>
