<svg width="265" height="265" viewBox="0 0 265 265" fill="none" xmlns="http://www.w3.org/2000/svg">
  <g clip-path="url(#clip0_16_846)">
    <path
      d="M171.521 61.6926C170.121 60.8843 168.317 60.776 167.212 61.0719L152.158 64.514L142.17 55.9473C139.074 53.2264 135.761 54.114 133.444 56.51L124.069 67.8982L108.935 66.6276C105.327 66.411 103.01 68.807 102.794 72.4155L101.927 86.8494L89.8602 94.8167C86.8434 96.8085 86.6268 100.417 87.9186 103.03L96.5859 115.501L91.411 129.314C90.4944 132.518 92.082 136.235 95.2864 137.152L109.8 142.731L114.346 157.489C115.234 160.802 118.734 162.823 122.046 161.935L137.101 158.493L149.189 168.272C151.585 170.589 155.598 170.106 157.915 167.71L167.29 156.322L182.424 157.592C186.032 157.809 188.349 155.413 188.565 151.804L187.332 136.158L199.399 128.19C202.415 126.199 203.332 122.994 201.34 119.978L192.673 107.506L197.848 93.6933C198.764 90.489 197.177 86.7722 193.972 85.8556L179.459 80.2765L174.913 65.5177C175.021 63.7135 172.921 62.501 171.521 61.6926ZM86.7564 116.359L39.9969 147.232L67.2191 158.282L66.8864 187.958L106.508 161.365L105.916 159.156L102.554 148.814L91.9447 144.556C85.2402 141.619 81.3649 133.781 83.6023 126.672L86.7564 116.359ZM169.361 164.051L162.006 171.939C157.373 176.731 150.048 178.102 144.448 174.869L143.047 174.06L134.055 167.002L123.417 169.261L121.209 169.852L117.989 217.463L143.119 203.036L166.299 221.087L169.361 164.051Z"
      fill="#6747E5" />
    <g clip-path="url(#clip1_16_846)">
      <path
        d="M161.163 124.163C162.6 124.331 164.064 123.653 164.833 122.321C165.623 120.953 165.444 119.297 164.517 118.129C165.564 117.941 166.524 117.328 167.096 116.336C168.13 114.546 167.517 112.259 165.728 111.227L158.347 106.965C159.862 105.979 161.542 104.49 162.606 102.163C163.608 99.973 163.976 95.2917 161.402 93.5165C159.418 92.1491 158.566 92.6968 157.361 94.7832C157.361 94.7832 156.218 96.8174 155.47 98.1128C154.13 100.434 152.676 101.169 148.818 101.55C143.729 102.052 142.336 103.024 142.336 103.024L133.441 118.429C132.324 120.364 132.987 122.839 134.922 123.956L141.643 127.836L149.847 132.572C151.637 133.606 154.556 134.139 155.927 131.765C156.44 130.876 156.546 129.865 156.304 128.945C158.002 129.623 159.98 128.985 160.921 127.355C161.505 126.343 161.547 125.177 161.163 124.163Z"
        fill="white" />
      <path
        d="M138.692 99.409L133.567 96.4503C132.6 95.8923 131.364 96.2226 130.805 97.1913L120.222 115.522C119.664 116.488 119.995 117.725 120.962 118.283L126.086 121.242C127.054 121.801 128.291 121.469 128.849 120.503L139.432 102.172C139.991 101.204 139.659 99.9677 138.692 99.409ZM125.502 117.197C124.607 116.68 124.3 115.534 124.817 114.639C125.334 113.743 126.48 113.436 127.375 113.953C128.273 114.471 128.578 115.616 128.061 116.512C127.544 117.407 126.4 117.715 125.502 117.197Z"
        fill="white" />
    </g>
  </g>

</svg>