<svg width="130" height="130" viewBox="0 0 130 130" fill="none" xmlns="http://www.w3.org/2000/svg">
<circle cx="65" cy="65" r="65" fill="url(#paint0_linear_234_1462)"/>
<path d="M70.587 34.6665H59.4137C54.5603 34.6665 51.667 37.5598 51.667 42.4132V53.5732C51.667 58.4398 54.5603 61.3332 59.4137 61.3332H70.5737C75.427 61.3332 78.3203 58.4398 78.3203 53.5865V42.4132C78.3337 37.5598 75.4403 34.6665 70.587 34.6665ZM65.0003 53.1732C62.147 53.1732 59.827 50.8532 59.827 47.9998C59.827 45.1465 62.147 42.8265 65.0003 42.8265C67.8537 42.8265 70.1737 45.1465 70.1737 47.9998C70.1737 50.8532 67.8537 53.1732 65.0003 53.1732ZM72.8937 41.1732C72.827 41.3332 72.7337 41.4798 72.6137 41.6132C72.4803 41.7332 72.3337 41.8265 72.1737 41.8932C72.0137 41.9598 71.8403 41.9998 71.667 41.9998C71.307 41.9998 70.9737 41.8665 70.7203 41.6132C70.6003 41.4798 70.507 41.3332 70.4403 41.1732C70.3737 41.0132 70.3337 40.8398 70.3337 40.6665C70.3337 40.4932 70.3737 40.3198 70.4403 40.1598C70.507 39.9865 70.6003 39.8532 70.7203 39.7198C71.027 39.4132 71.4937 39.2665 71.9203 39.3598C72.0137 39.3732 72.0937 39.3998 72.1737 39.4398C72.2537 39.4665 72.3337 39.5065 72.4137 39.5598C72.4803 39.5998 72.547 39.6665 72.6137 39.7198C72.7337 39.8532 72.827 39.9865 72.8937 40.1598C72.9603 40.3198 73.0003 40.4932 73.0003 40.6665C73.0003 40.8398 72.9603 41.0132 72.8937 41.1732Z" fill="#F6F2EE"/>
<path d="M16.902 89.365C16.2043 89.365 15.5587 89.2458 14.965 89.0075C14.3757 88.7692 13.8622 88.4355 13.4245 88.0065C12.9868 87.5775 12.6467 87.0727 12.404 86.492C12.1613 85.9113 12.04 85.2808 12.04 84.6005C12.04 83.8292 12.1613 83.138 12.404 82.527C12.651 81.9117 12.9933 81.3873 13.431 80.954C13.873 80.5207 14.3887 80.1892 14.978 79.9595C15.5717 79.7298 16.2152 79.615 16.9085 79.615C17.7318 79.615 18.4512 79.745 19.0665 80.005C19.6818 80.2607 20.191 80.6117 20.594 81.058C21.0013 81.5 21.3003 82.0005 21.491 82.5595C21.686 83.1185 21.7705 83.7013 21.7445 84.308C21.7142 85.1357 21.53 85.7662 21.192 86.1995C20.854 86.6328 20.3578 86.8495 19.7035 86.8495C19.3222 86.8495 18.9798 86.7607 18.6765 86.583C18.3732 86.4053 18.1673 86.1497 18.059 85.816L18.4035 85.842C18.2388 86.1627 18.0048 86.3923 17.7015 86.531C17.3982 86.6653 17.084 86.7325 16.759 86.7325C16.343 86.7325 15.9768 86.6437 15.6605 86.466C15.3485 86.284 15.1015 86.0327 14.9195 85.712C14.7418 85.387 14.653 85.0122 14.653 84.5875C14.653 84.1455 14.7462 83.7642 14.9325 83.4435C15.1188 83.1228 15.3723 82.8758 15.693 82.7025C16.0137 82.5248 16.3755 82.436 16.7785 82.436C17.0602 82.436 17.3527 82.4945 17.656 82.6115C17.9593 82.7285 18.1933 82.9062 18.358 83.1445L18.098 83.4565V82.618H18.878L18.865 84.841C18.865 85.166 18.9343 85.4217 19.073 85.608C19.216 85.7943 19.437 85.8875 19.736 85.8875C19.9657 85.8875 20.1498 85.8225 20.2885 85.6925C20.4315 85.5625 20.5377 85.3848 20.607 85.1595C20.6763 84.9298 20.7153 84.6633 20.724 84.36C20.7457 83.6927 20.6547 83.1207 20.451 82.644C20.2473 82.1673 19.9635 81.7752 19.5995 81.4675C19.2398 81.1598 18.8325 80.9345 18.3775 80.7915C17.9268 80.6442 17.4588 80.5705 16.9735 80.5705C16.3452 80.5705 15.7862 80.6723 15.2965 80.876C14.8112 81.0797 14.3995 81.3657 14.0615 81.734C13.7278 82.098 13.4743 82.5227 13.301 83.008C13.132 83.4933 13.0518 84.0177 13.0605 84.581C13.0735 85.1487 13.1775 85.6687 13.3725 86.141C13.5675 86.609 13.8383 87.012 14.185 87.35C14.536 87.688 14.9455 87.948 15.4135 88.13C15.8858 88.3163 16.3993 88.4095 16.954 88.4095C17.292 88.4095 17.6278 88.3683 17.9615 88.286C18.2995 88.2037 18.6028 88.091 18.8715 87.948L19.2095 88.819C18.8542 89.001 18.4815 89.1375 18.0915 89.2285C17.7015 89.3195 17.305 89.365 16.902 89.365ZM16.824 85.764C17.149 85.764 17.4155 85.6708 17.6235 85.4845C17.8358 85.2982 17.942 84.997 17.942 84.581C17.942 84.1867 17.8445 83.8898 17.6495 83.6905C17.4545 83.4912 17.188 83.3915 16.85 83.3915C16.46 83.3915 16.1632 83.4977 15.9595 83.71C15.7602 83.918 15.6605 84.2083 15.6605 84.581C15.6605 84.958 15.7645 85.2505 15.9725 85.4585C16.1805 85.6622 16.4643 85.764 16.824 85.764ZM27.6234 88C27.2074 88.0823 26.7958 88.1148 26.3884 88.0975C25.9854 88.0845 25.6258 88.0043 25.3094 87.857C24.9931 87.7053 24.7526 87.4713 24.5879 87.155C24.4493 86.8777 24.3734 86.5982 24.3604 86.3165C24.3518 86.0305 24.3474 85.7077 24.3474 85.348V79.03H25.5044V85.296C25.5044 85.582 25.5066 85.8268 25.5109 86.0305C25.5196 86.2342 25.5651 86.4097 25.6474 86.557C25.8034 86.8343 26.0504 86.9968 26.3884 87.0445C26.7308 87.0922 27.1424 87.0792 27.6234 87.0055V88ZM22.9239 81.9355V80.98H27.6234V81.9355H22.9239ZM31.7467 88.195C31.049 88.195 30.4467 88.0368 29.9397 87.7205C29.437 87.4042 29.0492 86.9665 28.7762 86.4075C28.5032 85.8485 28.3667 85.2072 28.3667 84.4835C28.3667 83.7468 28.5053 83.1012 28.7827 82.5465C29.06 81.9918 29.4522 81.5607 29.9592 81.253C30.4662 80.941 31.062 80.785 31.7467 80.785C32.4487 80.785 33.0532 80.9432 33.5602 81.2595C34.0672 81.5715 34.455 82.007 34.7237 82.566C34.9967 83.1207 35.1332 83.7598 35.1332 84.4835C35.1332 85.2158 34.9967 85.8615 34.7237 86.4205C34.4507 86.9752 34.0607 87.4107 33.5537 87.727C33.0467 88.039 32.4443 88.195 31.7467 88.195ZM31.7467 87.0965C32.4747 87.0965 33.0163 86.8538 33.3717 86.3685C33.727 85.8832 33.9047 85.2548 33.9047 84.4835C33.9047 83.6905 33.7248 83.06 33.3652 82.592C33.0055 82.1197 32.466 81.8835 31.7467 81.8835C31.257 81.8835 30.854 81.994 30.5377 82.215C30.2213 82.436 29.9852 82.7415 29.8292 83.1315C29.6732 83.5215 29.5952 83.9722 29.5952 84.4835C29.5952 85.2722 29.7772 85.9048 30.1412 86.3815C30.5052 86.8582 31.0403 87.0965 31.7467 87.0965ZM39.2293 88.182C38.7786 88.182 38.3908 88.1105 38.0658 87.9675C37.7451 87.8245 37.4786 87.6338 37.2663 87.3955C37.054 87.1572 36.8871 86.8928 36.7658 86.6025C36.6445 86.3122 36.5578 86.0153 36.5058 85.712C36.4581 85.4087 36.4343 85.1248 36.4343 84.8605V80.98H37.6043V84.4965C37.6043 84.8258 37.6346 85.1443 37.6953 85.452C37.756 85.7597 37.8578 86.037 38.0008 86.284C38.1481 86.531 38.3431 86.726 38.5858 86.869C38.8328 87.012 39.1405 87.0835 39.5088 87.0835C39.7991 87.0835 40.0635 87.0337 40.3018 86.934C40.5401 86.8343 40.7438 86.687 40.9128 86.492C41.0818 86.2927 41.2118 86.0413 41.3028 85.738C41.3938 85.4347 41.4393 85.0815 41.4393 84.6785L42.1998 84.9125C42.1998 85.5885 42.0763 86.1713 41.8293 86.661C41.5866 87.1507 41.2421 87.5277 40.7958 87.792C40.3538 88.052 39.8316 88.182 39.2293 88.182ZM41.5693 88V86.1215H41.4393V80.98H42.6028V88H41.5693ZM47.3802 88.195C46.6695 88.195 46.065 88.0368 45.5667 87.7205C45.0727 87.3998 44.6957 86.96 44.4357 86.401C44.1757 85.842 44.0414 85.205 44.0327 84.49C44.0414 83.7577 44.1779 83.1142 44.4422 82.5595C44.7109 82.0005 45.0944 81.565 45.5927 81.253C46.091 80.941 46.6912 80.785 47.3932 80.785C48.1342 80.785 48.7712 80.967 49.3042 81.331C49.8415 81.695 50.2012 82.1933 50.3832 82.826L49.2392 83.1705C49.0919 82.7632 48.8514 82.4468 48.5177 82.2215C48.1884 81.9962 47.8092 81.8835 47.3802 81.8835C46.8992 81.8835 46.5027 81.9962 46.1907 82.2215C45.8787 82.4425 45.6469 82.7502 45.4952 83.1445C45.3435 83.5345 45.2655 83.983 45.2612 84.49C45.2699 85.27 45.4497 85.9005 45.8007 86.3815C46.156 86.8582 46.6825 87.0965 47.3802 87.0965C47.8395 87.0965 48.2209 86.9925 48.5242 86.7845C48.8275 86.5722 49.0572 86.2667 49.2132 85.868L50.3832 86.1735C50.1405 86.8278 49.7614 87.3283 49.2457 87.675C48.73 88.0217 48.1082 88.195 47.3802 88.195ZM56.7083 88V84.4835C56.7083 84.1498 56.678 83.8292 56.6173 83.5215C56.561 83.2138 56.4591 82.9387 56.3118 82.696C56.1688 82.449 55.9738 82.254 55.7268 82.111C55.4841 81.968 55.1765 81.8965 54.8038 81.8965C54.5135 81.8965 54.2491 81.9463 54.0108 82.046C53.7768 82.1413 53.5753 82.2887 53.4063 82.488C53.2373 82.6873 53.1051 82.9387 53.0098 83.242C52.9188 83.541 52.8733 83.8942 52.8733 84.3015L52.1128 84.0675C52.1128 83.3872 52.2341 82.8043 52.4768 82.319C52.7238 81.8293 53.0683 81.4545 53.5103 81.1945C53.9566 80.9302 54.481 80.798 55.0833 80.798C55.5383 80.798 55.9261 80.8695 56.2468 81.0125C56.5675 81.1555 56.834 81.3462 57.0463 81.5845C57.2586 81.8185 57.4255 82.0828 57.5468 82.3775C57.6681 82.6678 57.7526 82.9647 57.8003 83.268C57.8523 83.567 57.8783 83.8508 57.8783 84.1195V88H56.7083ZM51.7033 88V78.64H52.7433V83.8075H52.8733V88H51.7033ZM59.6982 88V78.445H60.8552V88H59.6982ZM62.9355 79.7385V78.5425H64.0925V79.7385H62.9355ZM62.9355 88V80.98H64.0925V88H62.9355ZM66.7123 88V80.5965C66.7123 80.4145 66.721 80.2303 66.7383 80.044C66.7556 79.8533 66.7946 79.6692 66.8553 79.4915C66.916 79.3095 67.0156 79.1427 67.1543 78.991C67.3146 78.8133 67.4901 78.6877 67.6808 78.614C67.8715 78.536 68.0643 78.4883 68.2593 78.471C68.4586 78.4537 68.6471 78.445 68.8248 78.445H69.7153V79.407H68.8898C68.5475 79.407 68.2918 79.4915 68.1228 79.6605C67.9538 79.8252 67.8693 80.0765 67.8693 80.4145V88H66.7123ZM65.5228 81.9355V80.98H69.7153V81.9355H65.5228ZM73.5409 88.195C72.8519 88.195 72.2495 88.0433 71.7339 87.74C71.2225 87.4323 70.8239 87.0055 70.5379 86.4595C70.2519 85.9092 70.1089 85.2678 70.1089 84.5355C70.1089 83.7685 70.2497 83.1055 70.5314 82.5465C70.813 81.9832 71.2052 81.5498 71.7079 81.2465C72.2149 80.9388 72.8085 80.785 73.4889 80.785C74.1952 80.785 74.7954 80.9475 75.2894 81.2725C75.7877 81.5975 76.1604 82.0612 76.4074 82.6635C76.6587 83.2658 76.767 83.983 76.7324 84.815H75.5624V84.399C75.5494 83.5367 75.3739 82.8932 75.0359 82.4685C74.6979 82.0395 74.1952 81.825 73.5279 81.825C72.8129 81.825 72.269 82.0547 71.8964 82.514C71.5237 82.9733 71.3374 83.632 71.3374 84.49C71.3374 85.3177 71.5237 85.959 71.8964 86.414C72.269 86.869 72.7999 87.0965 73.4889 87.0965C73.9525 87.0965 74.3555 86.9903 74.6979 86.778C75.0402 86.5657 75.3089 86.2602 75.5039 85.8615L76.6154 86.245C76.3424 86.8647 75.9307 87.3457 75.3804 87.688C74.8344 88.026 74.2212 88.195 73.5409 88.195ZM70.9474 84.815V83.8855H76.1344V84.815H70.9474ZM77.2695 89.4495V88.494H85.8495V89.4495H77.2695ZM89.9856 88.195C89.3269 88.195 88.7722 88.0325 88.3216 87.7075C87.8709 87.3782 87.5286 86.934 87.2946 86.375C87.0649 85.8117 86.9501 85.1812 86.9501 84.4835C86.9501 83.7772 87.0649 83.1445 87.2946 82.5855C87.5286 82.0265 87.8709 81.5867 88.3216 81.266C88.7766 80.9453 89.3334 80.785 89.9921 80.785C90.6421 80.785 91.2011 80.9475 91.6691 81.2725C92.1414 81.5932 92.5032 82.033 92.7546 82.592C93.0059 83.151 93.1316 83.7815 93.1316 84.4835C93.1316 85.1855 93.0059 85.816 92.7546 86.375C92.5032 86.934 92.1414 87.3782 91.6691 87.7075C91.2011 88.0325 90.6399 88.195 89.9856 88.195ZM86.7551 88V78.64H87.9186V82.8325H87.7886V88H86.7551ZM89.8426 87.1355C90.3062 87.1355 90.6897 87.0185 90.9931 86.7845C91.2964 86.5505 91.5239 86.2342 91.6756 85.8355C91.8272 85.4325 91.9031 84.9818 91.9031 84.4835C91.9031 83.9895 91.8272 83.5432 91.6756 83.1445C91.5282 82.7458 91.2986 82.4295 90.9866 82.1955C90.6789 81.9615 90.2867 81.8445 89.8101 81.8445C89.3551 81.8445 88.9781 81.9572 88.6791 82.1825C88.3801 82.4035 88.1569 82.7133 88.0096 83.112C87.8622 83.5063 87.7886 83.9635 87.7886 84.4835C87.7886 84.9948 87.8601 85.452 88.0031 85.855C88.1504 86.2537 88.3757 86.5678 88.6791 86.7975C88.9824 87.0228 89.3702 87.1355 89.8426 87.1355ZM94.5565 88V80.98H95.59V82.6765L95.421 82.4555C95.5033 82.2388 95.6095 82.0395 95.7395 81.8575C95.8738 81.6755 96.0233 81.526 96.188 81.409C96.37 81.2617 96.5758 81.149 96.8055 81.071C97.0352 80.993 97.2692 80.9475 97.5075 80.9345C97.7458 80.9172 97.969 80.9323 98.177 80.98V82.0655C97.9343 82.0005 97.6678 81.9832 97.3775 82.0135C97.0872 82.0438 96.8185 82.15 96.5715 82.332C96.3462 82.4923 96.1707 82.6873 96.045 82.917C95.9237 83.1467 95.8392 83.3958 95.7915 83.6645C95.7438 83.9288 95.72 84.1997 95.72 84.477V88H94.5565ZM102.321 88.195C101.632 88.195 101.03 88.0433 100.514 87.74C100.003 87.4323 99.6041 87.0055 99.3181 86.4595C99.0321 85.9092 98.8891 85.2678 98.8891 84.5355C98.8891 83.7685 99.03 83.1055 99.3116 82.5465C99.5933 81.9832 99.9855 81.5498 100.488 81.2465C100.995 80.9388 101.589 80.785 102.269 80.785C102.975 80.785 103.576 80.9475 104.07 81.2725C104.568 81.5975 104.941 82.0612 105.188 82.6635C105.439 83.2658 105.547 83.983 105.513 84.815H104.343V84.399C104.33 83.5367 104.154 82.8932 103.816 82.4685C103.478 82.0395 102.975 81.825 102.308 81.825C101.593 81.825 101.049 82.0547 100.677 82.514C100.304 82.9733 100.118 83.632 100.118 84.49C100.118 85.3177 100.304 85.959 100.677 86.414C101.049 86.869 101.58 87.0965 102.269 87.0965C102.733 87.0965 103.136 86.9903 103.478 86.778C103.82 86.5657 104.089 86.2602 104.284 85.8615L105.396 86.245C105.123 86.8647 104.711 87.3457 104.161 87.688C103.615 88.026 103.001 88.195 102.321 88.195ZM99.7276 84.815V83.8855H104.915V84.815H99.7276ZM109.612 88.1885C108.775 88.1885 108.089 88.0065 107.551 87.6425C107.018 87.2742 106.691 86.7607 106.57 86.102L107.753 85.9135C107.848 86.2948 108.067 86.5982 108.409 86.8235C108.752 87.0445 109.176 87.155 109.683 87.155C110.164 87.155 110.541 87.0553 110.814 86.856C111.087 86.6567 111.224 86.3858 111.224 86.0435C111.224 85.8442 111.178 85.6838 111.087 85.5625C110.996 85.4368 110.808 85.3198 110.522 85.2115C110.24 85.1032 109.813 84.9732 109.241 84.8215C108.622 84.6568 108.134 84.4857 107.779 84.308C107.423 84.1303 107.17 83.9245 107.018 83.6905C106.867 83.4565 106.791 83.1727 106.791 82.839C106.791 82.4273 106.903 82.0677 107.129 81.76C107.354 81.448 107.668 81.2075 108.071 81.0385C108.479 80.8695 108.951 80.785 109.488 80.785C110.021 80.785 110.498 80.8695 110.918 81.0385C111.339 81.2075 111.677 81.448 111.932 81.76C112.192 82.0677 112.346 82.4273 112.394 82.839L111.211 83.0535C111.154 82.6765 110.972 82.3797 110.665 82.163C110.361 81.9463 109.969 81.8315 109.488 81.8185C109.033 81.8012 108.663 81.8813 108.377 82.059C108.095 82.2367 107.954 82.4772 107.954 82.7805C107.954 82.9495 108.006 83.0947 108.11 83.216C108.219 83.3373 108.416 83.4522 108.702 83.5605C108.992 83.6688 109.412 83.7923 109.963 83.931C110.582 84.087 111.07 84.2582 111.425 84.4445C111.785 84.6265 112.041 84.8432 112.192 85.0945C112.344 85.3415 112.42 85.647 112.42 86.011C112.42 86.687 112.171 87.22 111.672 87.61C111.174 87.9957 110.487 88.1885 109.612 88.1885ZM117.773 88C117.357 88.0823 116.945 88.1148 116.538 88.0975C116.135 88.0845 115.775 88.0043 115.459 87.857C115.143 87.7053 114.902 87.4713 114.737 87.155C114.599 86.8777 114.523 86.5982 114.51 86.3165C114.501 86.0305 114.497 85.7077 114.497 85.348V79.03H115.654V85.296C115.654 85.582 115.656 85.8268 115.66 86.0305C115.669 86.2342 115.715 86.4097 115.797 86.557C115.953 86.8343 116.2 86.9968 116.538 87.0445C116.88 87.0922 117.292 87.0792 117.773 87.0055V88ZM113.073 81.9355V80.98H117.773V81.9355H113.073Z" fill="#F6F2EE"/>
<defs>
<linearGradient id="paint0_linear_234_1462" x1="0.303738" y1="8.31396" x2="130.8" y2="9.44365" gradientUnits="userSpaceOnUse">
<stop stop-color="#1B1B1D"/>
<stop offset="1" stop-color="#28282A"/>
</linearGradient>
</defs>
</svg>
