<svg width="32" height="32" viewBox="0 0 32 32" fill="none" xmlns="http://www.w3.org/2000/svg">
  <rect width="32" height="32" rx="16" fill="#a40000" />
  <path
    d="M19.4917 7.66675H12.5084C9.47502 7.66675 7.66669 9.47508 7.66669 12.5084V19.4834C7.66669 22.5251 9.47502 24.3334 12.5084 24.3334H19.4834C22.5167 24.3334 24.325 22.5251 24.325 19.4917V12.5084C24.3334 9.47508 22.525 7.66675 19.4917 7.66675ZM16 19.2334C14.2167 19.2334 12.7667 17.7834 12.7667 16.0001C12.7667 14.2167 14.2167 12.7667 16 12.7667C17.7834 12.7667 19.2334 14.2167 19.2334 16.0001C19.2334 17.7834 17.7834 19.2334 16 19.2334ZM20.9334 11.7334C20.8917 11.8334 20.8334 11.9251 20.7584 12.0084C20.675 12.0834 20.5834 12.1417 20.4834 12.1834C20.3834 12.2251 20.275 12.2501 20.1667 12.2501C19.9417 12.2501 19.7334 12.1667 19.575 12.0084C19.5 11.9251 19.4417 11.8334 19.4 11.7334C19.3584 11.6334 19.3334 11.5251 19.3334 11.4167C19.3334 11.3084 19.3584 11.2001 19.4 11.1001C19.4417 10.9917 19.5 10.9084 19.575 10.8251C19.7667 10.6334 20.0584 10.5417 20.325 10.6001C20.3834 10.6084 20.4334 10.6251 20.4834 10.6501C20.5334 10.6667 20.5834 10.6917 20.6334 10.7251C20.675 10.7501 20.7167 10.7917 20.7584 10.8251C20.8334 10.9084 20.8917 10.9917 20.9334 11.1001C20.975 11.2001 21 11.3084 21 11.4167C21 11.5251 20.975 11.6334 20.9334 11.7334Z"
    fill="#FAF9F6" />
</svg>