<svg width="120" height="120" viewBox="0 0 120 120" fill="none" xmlns="http://www.w3.org/2000/svg">
<path d="M60 79.875C70.9793 79.875 79.875 70.9793 79.875 60V26.875C79.875 15.8957 70.9793 7 60 7C49.0207 7 40.125 15.8957 40.125 26.875V60C40.125 70.9793 49.0207 79.875 60 79.875Z" fill="white"/>
<path d="M93.125 53.375C89.463 53.375 86.5 56.338 86.5 60C86.5 74.6346 74.6346 86.5 60 86.5C45.3654 86.5 33.5 74.6346 33.5 60C33.5 56.338 30.537 53.375 26.875 53.375C23.213 53.375 20.25 56.338 20.25 60C20.25 79.6878 34.5865 95.9903 53.375 99.1554V106.375C53.375 110.037 56.338 113 60 113C63.662 113 66.625 110.037 66.625 106.375V99.1554C85.4135 95.9903 99.75 79.6878 99.75 60C99.75 56.338 96.787 53.375 93.125 53.375Z" fill="white"/>
</svg>
