<svg width="120" height="120" viewBox="0 0 120 120" fill="none" xmlns="http://www.w3.org/2000/svg">
<path d="M87.6455 38.85C87.2955 38.8 86.9455 38.8 86.5955 38.85C78.8455 38.6 72.6955 32.25 72.6955 24.45C72.6955 16.5 79.1455 10 87.1455 10C95.0955 10 101.595 16.45 101.595 24.45C101.545 32.25 95.3955 38.6 87.6455 38.85Z" fill="white"/>
<path d="M103.958 73.502C98.358 77.252 90.508 78.652 83.258 77.702C85.158 73.602 86.158 69.052 86.208 64.252C86.208 59.252 85.108 54.502 83.008 50.352C90.408 49.352 98.258 50.752 103.908 54.502C111.808 59.702 111.808 68.252 103.958 73.502Z" fill="white"/>
<path d="M32.2008 38.85C32.5508 38.8 32.9008 38.8 33.2508 38.85C41.0008 38.6 47.1508 32.25 47.1508 24.45C47.1508 16.45 40.7008 10 32.7008 10C24.7508 10 18.3008 16.45 18.3008 24.45C18.3008 32.25 24.4508 38.6 32.2008 38.85Z" fill="white"/>
<path d="M32.7554 64.253C32.7554 69.103 33.8054 73.703 35.7054 77.853C28.6554 78.603 21.3054 77.103 15.9054 73.553C8.00544 68.303 8.00544 59.753 15.9054 54.503C21.2554 50.903 28.8054 49.4529 35.9054 50.253C33.8554 54.453 32.7554 59.203 32.7554 64.253Z" fill="white"/>
<path d="M60.604 79.35C60.204 79.3 59.754 79.3 59.304 79.35C50.104 79.05 42.7539 71.5 42.7539 62.2C42.8039 52.7 50.454 45 60.004 45C69.504 45 77.204 52.7 77.204 62.2C77.154 71.5 69.854 79.05 60.604 79.35Z" fill="white"/>
<path d="M44.3539 89.7031C36.8039 94.7531 36.8039 103.053 44.3539 108.053C52.954 113.803 67.054 113.803 75.654 108.053C83.204 103.003 83.204 94.7031 75.654 89.7031C67.104 83.9531 53.004 83.9531 44.3539 89.7031Z" fill="white"/>
</svg>
