<svg width="32" height="32" viewBox="0 0 32 32" fill="none" xmlns="http://www.w3.org/2000/svg">
  <rect width="32" height="32" rx="16" fill="#a40000" />
  <path
    d="M15.9997 20.3057C15.4429 20.3057 14.8768 20.376 14.3207 20.4958C14.7964 22.6047 15.5247 23.8934 15.9997 23.8934C16.4755 23.8934 17.2038 22.6047 17.6788 20.4958C17.1234 20.376 16.5566 20.3057 15.9997 20.3057Z"
    fill="#FAF9F6" />
  <path
    d="M15.9999 13.1302C15.3484 13.1302 14.6954 13.0599 14.0611 12.9358C13.9578 13.6591 13.8867 14.4448 13.8609 15.2829H18.1389C18.1131 14.4448 18.042 13.6583 17.9387 12.9358C17.3044 13.0599 16.6514 13.1302 15.9999 13.1302Z"
    fill="#FAF9F6" />
  <path
    d="M16 11.6949C16.5639 11.6949 17.1315 11.6311 17.6826 11.5227C17.2076 9.40307 16.4764 8.10718 16 8.10718C15.5235 8.10718 14.7923 9.40378 14.3166 11.5234C14.8677 11.6311 15.436 11.6949 16 11.6949Z"
    fill="#FAF9F6" />
  <path
    d="M21.2046 9.78187L21.5217 9.40156C20.406 8.46661 19.0505 7.81294 17.5616 7.53882C18.2296 8.35322 18.7226 9.66492 19.0555 11.1366C19.9482 10.8001 20.7131 10.333 21.2046 9.78187Z"
    fill="#FAF9F6" />
  <path
    d="M19.3168 19.4717C20.4298 19.8786 21.4451 20.4748 22.233 21.2197L22.5688 21.5548C23.6946 20.2259 24.4215 18.5533 24.5743 16.7178H19.5752C19.545 17.6054 19.4582 18.5468 19.3168 19.4717Z"
    fill="#FAF9F6" />
  <path
    d="M14.0629 19.0816C14.7016 18.9482 15.3531 18.8707 15.9996 18.8707C16.6469 18.8707 17.2984 18.9482 17.937 19.0816C18.041 18.354 18.1128 17.5626 18.1393 16.718H13.8606C13.8872 17.5626 13.9589 18.3548 14.0629 19.0816Z"
    fill="#FAF9F6" />
  <path
    d="M12.4249 16.718H7.42572C7.57785 18.5535 8.30545 20.2254 9.43128 21.5543L9.75202 21.2336C10.5485 20.4808 11.5681 19.8817 12.6832 19.4727C12.5418 18.5478 12.4543 17.6056 12.4249 16.718Z"
    fill="#FAF9F6" />
  <path
    d="M10.7524 22.2623L10.4453 22.5686C11.5675 23.5194 12.9345 24.1846 14.4378 24.4615C13.7776 23.6557 13.2882 22.362 12.9553 20.9097C12.11 21.2462 11.3415 21.7054 10.7524 22.2623Z"
    fill="#FAF9F6" />
  <path
    d="M12.9438 11.1407C13.2767 9.66754 13.7697 8.35369 14.4377 7.53857C12.9588 7.81125 11.6106 8.45775 10.4984 9.38339L10.8335 9.82969C11.3049 10.3556 12.059 10.8106 12.9438 11.1407Z"
    fill="#FAF9F6" />
  <path
    d="M19.0452 20.9084C18.7122 22.3615 18.2229 23.6559 17.562 24.4618C19.0653 24.1848 20.4322 23.5196 21.5545 22.5696L21.233 22.2481C20.6511 21.6985 19.8869 21.2436 19.0452 20.9084Z"
    fill="#FAF9F6" />
  <path
    d="M19.5752 15.2825H24.5743C24.4208 13.434 23.6831 11.7514 22.5437 10.4175L22.2918 10.7196C21.5944 11.501 20.5338 12.1338 19.3212 12.5572C19.4596 13.4728 19.5457 14.4042 19.5752 15.2825Z"
    fill="#FAF9F6" />
  <path
    d="M12.6788 12.5583C11.4683 12.1371 10.4128 11.5093 9.72394 10.7379L9.47138 10.4014C8.32402 11.7375 7.57994 13.4265 7.42566 15.2829H12.4248C12.4542 14.4046 12.5396 13.4739 12.6788 12.5583Z"
    fill="#FAF9F6" />
</svg>