<svg width="32" height="32" viewBox="0 0 32 32" fill="none" xmlns="http://www.w3.org/2000/svg">
  <rect width="32" height="32" rx="16" fill="#a40000" />
  <path
    d="M22.8876 8.44344C22.8876 8.44344 24.5954 7.7775 24.4531 9.39477C24.4057 10.0607 23.9787 12.3915 23.6466 14.9125L22.5081 22.3805C22.5081 22.3805 22.4132 23.4746 21.5593 23.6648C20.7054 23.8551 19.4245 22.9989 19.1873 22.8086C18.9975 22.6659 15.6294 20.5254 14.4433 19.4789C14.1113 19.1935 13.7317 18.6227 14.4908 17.9568L19.472 13.2001C20.0412 12.6293 20.6105 11.2975 18.2385 12.9147L11.597 17.4336C11.597 17.4336 10.8379 17.9092 9.41477 17.4811L6.33117 16.5298C6.33117 16.5298 5.19262 15.8163 7.13765 15.1028C11.8816 12.8671 17.7167 10.5839 22.8876 8.44344Z"
    fill="#FAF9F6" />
</svg>