<svg width="120" height="120" viewBox="0 0 120 120" fill="none" xmlns="http://www.w3.org/2000/svg">
<path fill-rule="evenodd" clip-rule="evenodd" d="M60 113C89.2713 113 113 89.2713 113 60C113 30.7289 89.2713 7 60 7C30.7289 7 7 30.7289 7 60C7 89.2713 30.7289 113 60 113ZM65.8889 27.6111C65.8889 24.3588 63.2524 21.7222 60 21.7222C56.7476 21.7222 54.1111 24.3588 54.1111 27.6111V58.5278C54.1111 62.5935 57.4065 65.8889 61.4722 65.8889H80.6111C83.8635 65.8889 86.5 63.2524 86.5 60C86.5 56.7476 83.8635 54.1111 80.6111 54.1111H65.8889V27.6111Z" fill="white"/>
</svg>
